# Blender 3.3.0
# www.blender.org
mtllib computer.mtl
o Cube
v 0.194581 0.391542 -0.344082
v 0.194581 -0.407193 -0.344082
v 0.194581 0.391542 0.359986
v 0.194581 -0.407193 0.359986
v -0.182705 0.391542 -0.344082
v -0.182705 -0.407193 -0.344082
v -0.182705 0.391542 0.359986
v -0.182705 -0.407193 0.359986
v 0.158936 0.391542 0.324340
v -0.147059 0.391542 0.324340
v 0.158936 0.391542 -0.308436
v -0.147059 0.391542 -0.308436
v 0.194581 0.391542 0.359986
v -0.182705 0.391542 0.359986
v 0.194581 0.391542 -0.344082
v -0.182705 0.391542 -0.344082
v 0.158936 0.429810 0.324340
v -0.147059 0.429810 0.324340
v 0.158936 0.429810 -0.308436
v -0.147059 0.429810 -0.308436
v 0.138233 0.771194 0.298494
v -0.126357 0.481766 0.298494
v 0.138233 0.771194 -0.282589
v -0.126357 0.481766 -0.282589
v 0.158936 0.786669 0.324340
v -0.147059 0.466292 0.324340
v 0.158936 0.786669 -0.308436
v -0.147059 0.466292 -0.308436
v 0.149096 0.756662 0.298494
v -0.115494 0.467234 0.298494
v 0.149096 0.756662 -0.282589
v -0.115494 0.467234 -0.282589
v 0.194581 0.083819 -0.344082
v -0.182705 0.083819 0.359986
v 0.194581 0.083819 0.359986
v -0.182705 0.083819 -0.344082
v 0.194581 0.009476 -0.344082
v 0.194581 0.009476 0.359986
v -0.182705 0.009476 -0.344082
v -0.182705 0.009476 0.359986
v -0.049644 0.009476 0.359986
v -0.049594 0.083819 0.359986
v 0.027936 0.009476 0.359986
v 0.027942 0.083819 0.359986
v 0.027936 0.009476 0.651517
v 0.027936 0.009476 0.589447
v 0.027942 0.083819 0.651517
v 0.027942 0.083819 0.589452
v -0.000615 0.009476 0.651517
v -0.049644 0.009476 0.602487
v -0.025129 0.009476 0.644948
v -0.043075 0.009476 0.627002
v -0.049594 0.083819 0.602487
v -0.000564 0.083819 0.651517
v -0.043025 0.083819 0.627002
v -0.025079 0.083819 0.644948
v 0.384897 0.083792 0.651517
v 0.384891 0.009448 0.651517
v 0.384897 0.083792 0.589452
v 0.384891 0.009448 0.589447
v 0.194581 -0.136196 -0.344082
v 0.194581 -0.136196 0.359986
v -0.182705 -0.136196 -0.344082
v -0.182705 -0.136196 0.359986
v 0.194581 -0.196965 -0.344082
v 0.194581 -0.196965 0.359986
v -0.182705 -0.196965 -0.344082
v -0.182705 -0.196965 0.359986
v -0.083826 -0.196965 -0.344082
v -0.083811 -0.136196 -0.344082
v -0.135823 -0.136196 -0.344082
v -0.135823 -0.196965 -0.344082
v 0.111173 -0.196965 -0.344082
v 0.111165 -0.136196 -0.344082
v 0.059483 -0.196965 -0.344082
v 0.059475 -0.136196 -0.344082
v 0.059483 -0.196965 -0.466559
v 0.111173 -0.196965 -0.466559
v 0.059475 -0.136196 -0.466559
v 0.111165 -0.136196 -0.466559
v -0.135823 -0.196965 -0.405970
v -0.083826 -0.196965 -0.405970
v -0.135823 -0.136196 -0.405970
v -0.083811 -0.136196 -0.405970
v -0.135823 -0.196965 -0.462583
v -0.083826 -0.196965 -0.462583
v -0.135823 -0.428476 -0.405970
v -0.083826 -0.428476 -0.405970
v -0.135823 -0.428476 -0.462583
v -0.083826 -0.428476 -0.462583
v -0.095693 -0.136196 0.359986
v 0.111173 -0.196965 -0.517329
v -0.095699 -0.196965 0.359986
v 0.111165 -0.136196 -0.517329
v 0.352892 -0.136163 -0.466559
v 0.352901 -0.196932 -0.466559
v 0.352892 -0.136163 -0.517329
v 0.352901 -0.196932 -0.517329
v -0.135823 -0.136196 -0.429004
v -0.135823 -0.169775 -0.462583
v -0.135823 -0.140694 -0.445793
v -0.135823 -0.152985 -0.458084
v -0.083819 -0.169775 -0.462583
v -0.083811 -0.136196 -0.429004
v -0.083815 -0.152985 -0.458084
v -0.083812 -0.140694 -0.445793
v 0.059483 -0.196965 -0.480780
v 0.096033 -0.196965 -0.517329
v 0.064380 -0.196965 -0.499055
v 0.077758 -0.196965 -0.512433
v 0.096025 -0.136196 -0.517329
v 0.059475 -0.136196 -0.480780
v 0.077750 -0.136196 -0.512433
v 0.064372 -0.136196 -0.499055
v 0.109749 -0.136196 0.359986
v 0.109766 -0.196965 0.359986
v 0.109749 -0.136196 0.515106
v -0.095693 -0.136196 0.515106
v -0.095699 -0.196965 0.515106
v 0.109766 -0.196965 0.515106
v -0.095699 -0.196965 0.561679
v 0.109766 -0.196965 0.561679
v 0.109766 -0.476122 0.515106
v -0.095699 -0.476122 0.515106
v 0.109766 -0.476122 0.561679
v -0.095699 -0.476122 0.561679
v 0.109749 -0.136196 0.527431
v 0.109759 -0.170443 0.561679
v 0.109750 -0.140784 0.544555
v 0.109754 -0.153320 0.557091
v -0.095697 -0.170443 0.561679
v -0.095693 -0.136196 0.527431
v -0.095695 -0.153320 0.557091
v -0.095694 -0.140784 0.544555
v -0.182705 -0.269884 0.359986
v 0.194581 -0.269738 0.359986
v -0.126781 -0.407193 0.359986
v -0.126823 -0.269863 0.359986
v 0.141563 -0.269758 0.359986
v 0.141617 -0.407193 0.359986
v 0.141563 -0.269758 0.409672
v -0.126823 -0.269863 0.409672
v -0.126781 -0.407193 0.409672
v 0.141617 -0.407193 0.409672
v -0.199912 0.304462 0.184550
v -0.199912 0.304432 -0.168646
v -0.182705 0.275079 -0.177874
v -0.182705 0.274962 0.193778
v -0.182705 0.269437 0.359986
v -0.182705 0.309987 0.359986
v -0.182705 0.309953 -0.344082
v -0.182705 0.269557 -0.344082
v -0.365014 0.274962 0.193778
v -0.347807 0.304462 0.184550
v -0.347807 0.304432 -0.168646
v -0.365014 0.275079 -0.177874
v -0.182705 0.304431 -0.177874
v -0.182705 0.304463 0.193778
v -0.365014 0.304431 -0.177874
v -0.365014 0.304463 0.193778
v -0.229572 0.314850 -0.161300
v -0.229572 0.314878 0.177203
v -0.334107 0.314850 -0.161300
v -0.334107 0.314878 0.177203
v -0.199912 0.314849 -0.168647
v -0.199912 0.314879 0.184549
v -0.347807 0.314849 -0.168647
v -0.347807 0.314879 0.184549
v -0.229572 0.318515 -0.161300
v -0.229572 0.318543 0.177202
v -0.334107 0.318515 -0.161300
v -0.334107 0.318543 0.177202
vn -0.0000 1.0000 -0.0000
vn -0.0000 -0.0000 1.0000
vn -1.0000 -0.0000 -0.0000
vn -0.0000 -1.0000 -0.0000
vn 1.0000 -0.0000 -0.0000
vn -0.0000 -0.0000 -1.0000
vn -0.7302 0.6832 -0.0000
vn -0.5987 0.8010 -0.0000
vn -0.8010 -0.5987 -0.0000
vn 0.8010 0.5987 -0.0000
vn -1.0000 0.0007 -0.0000
vn 1.0000 -0.0001 -0.0000
vn -0.9659 0.0007 0.2588
vn -0.7071 0.0005 0.7071
vn -0.2588 0.0002 0.9659
vn 0.0001 1.0000 -0.0000
vn -0.0001 -1.0000 -0.0000
vn -0.0000 0.0001 -1.0000
vn 1.0000 0.0001 -0.0000
vn -1.0000 -0.0001 -0.0000
vn 1.0000 -0.0003 -0.0000
vn -1.0000 0.0001 -0.0000
vn 0.0001 -1.0000 -0.0000
vn -0.0001 1.0000 -0.0000
vn -0.0000 0.9659 -0.2588
vn -0.0000 0.7071 -0.7071
vn -0.0000 0.2588 -0.9659
vn -0.2588 -0.0000 -0.9659
vn -0.7071 -0.0001 -0.7071
vn -0.9659 -0.0001 -0.2588
vn 1.0000 0.0003 -0.0000
vn -0.0000 0.9659 0.2588
vn -0.0000 0.7071 0.7071
vn -0.0000 0.2588 0.9659
vn 1.0000 0.0004 -0.0000
vn -0.0004 1.0000 -0.0000
vn -1.0000 -0.0003 -0.0000
vn -0.0000 -1.0000 -0.0003
vn -0.0000 1.0000 -0.0001
vn -0.0000 1.0000 -0.0002
vt 0.625000 0.500000
vt 0.375000 0.500000
vt 0.625000 0.750000
vt 0.375000 0.750000
vt 0.625000 0.250000
vt 0.125000 0.500000
vt 0.375000 0.250000
vt 0.625000 1.000000
vt 0.625000 0.000000
vt 0.125000 0.750000
vt 0.375000 0.000000
vt 0.375000 1.000000
vt 0.648620 0.726380
vt 0.851380 0.726380
vt 0.648620 0.523620
vt 0.851380 0.523620
vt 0.625000 0.750000
vt 0.625000 1.000000
vt 0.625000 0.000000
vt 0.875000 0.750000
vt 0.625000 0.500000
vt 0.625000 0.250000
vt 0.875000 0.500000
vt 0.648620 0.726380
vt 0.851380 0.726380
vt 0.648620 0.523620
vt 0.851380 0.523620
vt 0.662337 0.709254
vt 0.837662 0.709254
vt 0.662338 0.540746
vt 0.837662 0.540746
vt 0.648620 0.726380
vt 0.851380 0.726380
vt 0.648620 0.523620
vt 0.851380 0.523620
vt 0.662337 0.709254
vt 0.837662 0.709254
vt 0.662338 0.540746
vt 0.837662 0.540746
vt 0.528684 0.500000
vt 0.528684 0.000000
vt 0.528684 1.000000
vt 0.528684 0.750000
vt 0.528684 0.250000
vt 0.505415 0.500000
vt 0.505415 0.750000
vt 0.505415 0.250000
vt 0.505415 0.000000
vt 0.505415 1.000000
vt 0.505415 0.911830
vt 0.528684 0.911797
vt 0.505415 0.860424
vt 0.528684 0.860420
vt 0.505415 0.860424
vt 0.505415 0.860424
vt 0.528684 0.860420
vt 0.528684 0.860420
vt 0.505415 0.879342
vt 0.505415 0.911830
vt 0.505415 0.895586
vt 0.505416 0.910380
vt 0.528684 0.911797
vt 0.528684 0.879309
vt 0.528685 0.910346
vt 0.528684 0.895553
vt 0.528684 0.860420
vt 0.505415 0.860424
vt 0.528684 0.860420
vt 0.505415 0.860424
vt 0.459821 0.500000
vt 0.459821 0.750000
vt 0.459821 0.250000
vt 0.459821 0.000000
vt 0.459821 1.000000
vt 0.440800 0.500000
vt 0.440800 0.750000
vt 0.440800 0.250000
vt 0.440800 0.000000
vt 0.440800 1.000000
vt 0.440800 0.315519
vt 0.459821 0.315530
vt 0.459821 0.281065
vt 0.440800 0.281065
vt 0.440800 0.444731
vt 0.459821 0.444726
vt 0.440800 0.410480
vt 0.459821 0.410475
vt 0.440800 0.410480
vt 0.440800 0.444731
vt 0.459821 0.410475
vt 0.459821 0.444726
vt 0.440800 0.281065
vt 0.440800 0.315519
vt 0.459821 0.281065
vt 0.459821 0.315530
vt 0.440800 0.281065
vt 0.440800 0.315519
vt 0.440800 0.281065
vt 0.440800 0.315519
vt 0.440800 0.281065
vt 0.440800 0.315519
vt 0.459821 0.942344
vt 0.440800 0.444731
vt 0.440800 0.942348
vt 0.459821 0.444726
vt 0.459821 0.444726
vt 0.440800 0.444731
vt 0.459821 0.444726
vt 0.440800 0.444731
vt 0.459821 0.281065
vt 0.449311 0.281065
vt 0.459352 0.281065
vt 0.454566 0.281065
vt 0.449311 0.315524
vt 0.459821 0.315530
vt 0.454566 0.315527
vt 0.459352 0.315529
vt 0.440800 0.410480
vt 0.440800 0.434699
vt 0.440800 0.411562
vt 0.440800 0.422590
vt 0.459821 0.434694
vt 0.459821 0.410475
vt 0.459821 0.422585
vt 0.459821 0.411557
vt 0.459821 0.806212
vt 0.440800 0.806201
vt 0.459821 0.806212
vt 0.459821 0.942344
vt 0.440800 0.942348
vt 0.440800 0.806201
vt 0.440800 0.942348
vt 0.440800 0.806201
vt 0.440800 0.806201
vt 0.440800 0.942348
vt 0.440800 0.806201
vt 0.440800 0.942348
vt 0.459821 0.806212
vt 0.449102 0.806206
vt 0.459342 0.806211
vt 0.454461 0.806209
vt 0.449101 0.942346
vt 0.459821 0.942344
vt 0.454461 0.942345
vt 0.459342 0.942344
vt 0.417977 0.000000
vt 0.417977 1.000000
vt 0.418023 0.750000
vt 0.162056 0.750000
vt 0.375000 0.962944
vt 0.417984 0.962971
vt 0.418016 0.785131
vt 0.375000 0.785096
vt 0.339904 0.750000
vt 0.418016 0.785131
vt 0.417984 0.962971
vt 0.162056 0.750000
vt 0.375000 0.962944
vt 0.375000 0.785096
vt 0.339904 0.750000
vt 0.597744 0.015062
vt 0.597735 0.234938
vt 0.588548 0.246340
vt 0.588511 0.003660
vt 0.586782 1.000000
vt 0.586782 0.000000
vt 0.599474 1.000000
vt 0.599474 0.000000
vt 0.599463 0.250000
vt 0.586819 0.250000
vt 0.588511 0.003660
vt 0.597744 0.015062
vt 0.597735 0.234938
vt 0.588548 0.246340
vt 0.597735 0.246340
vt 0.597745 0.003660
vt 0.597735 0.246340
vt 0.597745 0.003660
vt 0.597736 0.225860
vt 0.597744 0.024140
vt 0.597736 0.225860
vt 0.597744 0.024140
vt 0.597735 0.234938
vt 0.597744 0.015062
vt 0.597735 0.234938
vt 0.597744 0.015062
vt 0.597736 0.225860
vt 0.597744 0.024140
vt 0.597736 0.225860
vt 0.597744 0.024140
s 0
usemtl Material
f 1/1/1 5/5/1 16/22/1 15/21/1
f 35/43/2 3/3/2 7/8/2 150/167/2 149/165/2 34/42/2 42/51/2 44/53/2
f 34/41/3 149/166/3 152/170/3 36/44/3
f 6/6/4 2/2/4 4/4/4 140/154/4 137/149/4 8/10/4
f 33/40/5 1/1/5 3/3/5 35/43/5
f 36/44/6 152/170/6 151/169/6 5/5/6 1/1/6 33/40/6
f 12/16/3 10/14/3 18/25/3 20/27/3
f 7/8/1 3/3/1 13/17/1 14/18/1
f 5/5/1 7/9/1 14/19/1 16/22/1
f 3/3/1 1/1/1 15/21/1 13/17/1
f 9/13/1 10/14/1 14/20/1 13/17/1
f 11/15/1 9/13/1 13/17/1 15/21/1
f 10/14/1 12/16/1 16/23/1 14/20/1
f 12/16/1 11/15/1 15/21/1 16/23/1
f 19/26/6 20/27/6 28/35/6 27/34/6
f 10/14/2 9/13/2 17/24/2 18/25/2
f 11/15/6 12/16/6 20/27/6 19/26/6
f 9/13/5 11/15/5 19/26/5 17/24/5
f 23/30/2 24/31/2 32/39/2 31/38/2
f 17/24/5 19/26/5 27/34/5 25/32/5
f 20/27/3 18/25/3 26/33/3 28/35/3
f 18/25/2 17/24/2 25/32/2 26/33/2
f 21/28/7 22/29/7 26/33/7 25/32/7
f 23/30/8 21/28/8 25/32/8 27/34/8
f 22/29/8 24/31/8 28/35/8 26/33/8
f 24/31/7 23/30/7 27/34/7 28/35/7
f 21/28/9 23/30/9 31/38/9 29/36/9
f 24/31/10 22/29/10 30/37/10 32/39/10
f 22/29/6 21/28/6 29/36/6 30/37/6
f 39/47/6 36/44/6 33/40/6 37/45/6
f 37/45/5 33/40/5 35/43/5 38/46/5
f 40/48/3 34/41/3 36/44/3 39/47/3
f 38/46/2 35/43/2 44/53/2 43/52/2
f 62/71/2 38/46/2 43/52/2 41/50/2 40/49/2 64/74/2 91/102/2 115/126/2
f 64/73/3 40/48/3 39/47/3 63/72/3
f 61/70/5 37/45/5 38/46/5 62/71/5
f 63/72/6 39/47/6 37/45/6 61/70/6 74/85/6 76/87/6 70/81/6 71/82/6
f 41/50/2 42/51/2 34/42/2 40/49/2
f 44/53/1 42/51/1 53/62/1 55/64/1 56/65/1 54/63/1 47/56/1 48/57/1
f 42/51/11 41/50/11 50/59/11 53/62/11
f 45/54/2 47/56/2 54/63/2 49/58/2
f 43/52/12 44/53/12 48/57/12 46/55/12
f 60/69/12 59/68/12 57/66/12 58/67/12
f 53/62/13 50/59/13 52/61/13 55/64/13
f 55/64/14 52/61/14 51/60/14 56/65/14
f 56/65/15 51/60/15 49/58/15 54/63/15
f 41/50/4 43/52/4 46/55/4 45/54/4 49/58/4 51/60/4 52/61/4 50/59/4
f 48/57/16 47/56/16 57/66/16 59/68/16
f 47/56/2 45/54/2 58/67/2 57/66/2
f 45/54/17 46/55/17 60/69/17 58/67/17
f 46/55/18 48/57/18 59/68/18 60/69/18
f 67/77/6 63/72/6 71/82/6 72/83/6
f 65/75/5 61/70/5 62/71/5 66/76/5
f 68/78/3 64/73/3 63/72/3 67/77/3
f 66/76/2 62/71/2 115/126/2 116/127/2
f 4/4/2 136/148/2 139/152/2 140/153/2
f 8/11/3 135/146/3 68/78/3 67/77/3 6/7/3
f 2/2/5 65/75/5 66/76/5 136/148/5 4/4/5
f 6/7/6 67/77/6 72/83/6 69/80/6 75/86/6 73/84/6 65/75/6 2/2/6
f 80/91/2 78/89/2 96/107/2 95/106/2
f 69/80/6 70/81/6 76/87/6 75/86/6
f 71/82/1 70/81/1 84/95/1 83/94/1
f 73/84/6 74/85/6 61/70/6 65/75/6
f 74/85/19 73/84/19 78/89/19 80/91/19
f 73/84/4 75/86/4 77/88/4 78/89/4
f 75/86/20 76/87/20 79/90/20 77/88/20
f 76/87/1 74/85/1 80/91/1 79/90/1
f 84/95/21 82/93/21 86/97/21 103/114/21 105/116/21 106/117/21 104/115/21
f 70/81/21 69/80/21 82/93/21 84/95/21
f 69/80/4 72/83/4 81/92/4 82/93/4
f 72/83/3 71/82/3 83/94/3 81/92/3
f 81/92/3 83/94/3 99/110/3 101/112/3 102/113/3 100/111/3 85/96/3
f 85/96/6 100/111/6 103/114/6 86/97/6
f 85/96/6 86/97/6 90/101/6 89/100/6
f 88/99/4 87/98/4 89/100/4 90/101/4
f 86/97/5 82/93/5 88/99/5 90/101/5
f 81/92/3 85/96/3 89/100/3 87/98/3
f 82/93/2 81/92/2 87/98/2 88/99/2
f 77/88/20 79/90/20 112/123/20 107/118/20
f 108/119/6 111/122/6 94/105/6 92/103/6
f 79/90/1 80/91/1 94/105/1 111/122/1 113/124/1 114/125/1 112/123/1
f 118/129/22 119/130/22 121/132/22 131/142/22 133/144/22 134/145/22 132/143/22
f 95/106/19 96/107/19 98/109/19 97/108/19
f 78/89/23 92/103/23 98/109/23 96/107/23
f 92/103/6 94/105/6 97/108/6 98/109/6
f 94/105/24 80/91/24 95/106/24 97/108/24
f 99/110/25 104/115/25 106/117/25 101/112/25
f 101/112/26 106/117/26 105/116/26 102/113/26
f 102/113/27 105/116/27 103/114/27 100/111/27
f 83/94/1 84/95/1 104/115/1 99/110/1
f 111/122/28 108/119/28 110/121/28 113/124/28
f 113/124/29 110/121/29 109/120/29 114/125/29
f 114/125/30 109/120/30 107/118/30 112/123/30
f 78/89/4 77/88/4 107/118/4 109/120/4 110/121/4 108/119/4 92/103/4
f 93/104/2 91/102/2 64/74/2 68/79/2
f 116/127/31 115/126/31 117/128/31 120/131/31
f 93/104/4 116/127/4 120/131/4 119/130/4
f 115/126/1 91/102/1 118/129/1 117/128/1
f 91/102/22 93/104/22 119/130/22 118/129/22
f 120/131/31 117/128/31 127/138/31 129/140/31 130/141/31 128/139/31 122/133/31
f 121/132/3 119/130/3 124/135/3 126/137/3
f 122/133/2 128/139/2 131/142/2 121/132/2
f 124/135/4 123/134/4 125/136/4 126/137/4
f 122/133/2 121/132/2 126/137/2 125/136/2
f 119/130/6 120/131/6 123/134/6 124/135/6
f 120/131/5 122/133/5 125/136/5 123/134/5
f 127/138/32 132/143/32 134/145/32 129/140/32
f 129/140/33 134/145/33 133/144/33 130/141/33
f 130/141/34 133/144/34 131/142/34 128/139/34
f 117/128/1 118/129/1 132/143/1 127/138/1
f 135/147/2 138/151/2 139/152/2 136/148/2 66/76/2 116/127/2 93/104/2 68/79/2
f 144/159/2 141/155/2 142/156/2 143/158/2
f 137/150/2 138/151/2 135/147/2 8/12/2
f 140/153/35 139/152/35 141/155/35 144/159/35
f 139/152/36 138/151/36 142/156/36 141/155/36
f 137/149/4 140/154/4 144/160/4 143/157/4
f 138/151/37 137/150/37 143/158/37 142/156/37
f 151/169/3 150/168/3 7/9/3 5/5/3
f 147/163/38 148/164/38 153/171/38 156/174/38
f 158/176/3 148/164/3 149/166/3 150/168/3
f 157/175/3 158/176/3 150/168/3 151/169/3
f 147/163/3 157/175/3 151/169/3 152/170/3
f 148/164/3 147/163/3 152/170/3 149/166/3
f 156/174/3 153/171/3 160/178/3 159/177/3
f 146/162/6 155/173/6 167/185/6 165/183/6
f 157/175/6 147/163/6 156/174/6 159/177/6
f 148/164/2 158/176/2 160/178/2 153/171/2
f 146/162/39 145/161/39 158/176/39 157/175/39
f 154/172/39 155/173/39 159/177/39 160/178/39
f 155/173/40 146/162/40 157/175/40 159/177/40
f 145/161/40 154/172/40 160/178/40 158/176/40
f 164/182/2 162/180/2 170/188/2 172/190/2
f 145/161/5 146/162/5 165/183/5 166/184/5
f 154/172/2 145/161/2 166/184/2 168/186/2
f 155/173/3 154/172/3 168/186/3 167/185/3
f 161/179/39 162/180/39 166/184/39 165/183/39
f 164/182/39 163/181/39 167/185/39 168/186/39
f 163/181/40 161/179/40 165/183/40 167/185/40
f 162/180/40 164/182/40 168/186/40 166/184/40
f 170/188/39 169/187/39 171/189/39 172/190/39
f 163/181/3 164/182/3 172/190/3 171/189/3
f 161/179/6 163/181/6 171/189/6 169/187/6
f 162/180/5 161/179/5 169/187/5 170/188/5
o Screen
v 0.149096 0.756662 0.298494
v -0.115494 0.467234 0.298494
v 0.149096 0.756662 -0.282589
v -0.115494 0.467234 -0.282589
vn -0.7381 0.6747 -0.0000
vt 1.000000 0.000000
vt 1.000000 1.000000
vt 0.000000 0.000000
vt 0.000000 1.000000
s 0
usemtl Material
f 175/193/41 176/194/41 174/192/41 173/191/41
