# Blender 3.1.0
# www.blender.org
mtllib emptyroom.mtl
o Cube
v 10.000000 4.000000 -10.000000
v 10.000000 0.000000 -10.000000
v 10.000000 4.000000 10.000000
v 10.000000 0.000000 10.000000
v -10.000000 4.000000 -10.000000
v -10.000000 0.000000 -10.000000
v -10.000000 4.000000 10.000000
v -10.000000 0.000000 10.000000
vn -0.0000 -1.0000 -0.0000
vn -0.0000 -0.0000 -1.0000
vn 1.0000 -0.0000 -0.0000
vn -0.0000 1.0000 -0.0000
vn -1.0000 -0.0000 -0.0000
vn -0.0000 -0.0000 1.0000
vt 0.625000 0.500000
vt 0.375000 0.500000
vt 0.625000 0.750000
vt 0.375000 0.750000
vt 0.875000 0.500000
vt 0.625000 0.250000
vt 0.125000 0.500000
vt 0.375000 0.250000
vt 0.875000 0.750000
vt 0.625000 1.000000
vt 0.625000 0.000000
vt 0.375000 1.000000
vt 0.375000 0.000000
vt 0.125000 0.750000
s 0
usemtl Material
f 1/1/1 3/3/1 7/9/1 5/5/1
f 4/4/2 8/12/2 7/10/2 3/3/2
f 8/13/3 6/8/3 5/6/3 7/11/3
f 6/7/4 8/14/4 4/4/4 2/2/4
f 2/2/5 4/4/5 3/3/5 1/1/5
f 6/8/6 2/2/6 1/1/6 5/6/6
o Cube.001
v 9.717238 4.020671 -6.923681
v 9.325652 3.884547 -7.315267
v 9.717238 4.020671 -7.977361
v 9.325652 3.884547 -7.585776
v 8.663558 4.020671 -6.923681
v 9.055143 3.884547 -7.315267
v 8.663558 4.020671 -7.977361
v 9.055143 3.884547 -7.585776
v 9.717238 3.884546 -6.923681
v 9.717238 3.884546 -7.977361
v 8.663558 3.884547 -7.977361
v 8.663558 3.884547 -6.923681
v 9.717238 3.884546 -6.923681
v 9.717238 3.884546 -7.977361
v 8.663558 3.884547 -7.977361
v 8.663558 3.884547 -6.923681
v 9.717238 3.884546 -6.923681
v 9.717238 3.884546 -7.977361
v 8.663558 3.884547 -7.977361
v 8.663558 3.884547 -6.923681
v 9.717238 3.884546 -6.923681
v 9.717238 3.884546 -7.977361
v 8.663558 3.884547 -7.977361
v 8.663558 3.884547 -6.923681
v 9.325652 2.374918 -7.315267
v 9.325652 2.374918 -7.585776
v 9.055142 2.374918 -7.585776
v 9.055142 2.374918 -7.315267
v 9.055143 2.607404 -7.585776
v 9.055143 2.607404 -7.315267
v 9.325652 2.607404 -7.315267
v 9.325652 2.607404 -7.585776
v 9.325652 2.607404 -9.874475
v 9.055143 2.607404 -9.874475
v 9.055142 2.374918 -9.874475
v 9.325652 2.374918 -9.874475
v 9.450921 2.715064 -9.874475
v 8.929874 2.715064 -9.874475
v 8.929874 2.267258 -9.874475
v 9.450921 2.267258 -9.874475
v 9.450921 2.715064 -10.013765
v 8.929874 2.715064 -10.013765
v 8.929874 2.267258 -10.013765
v 9.450921 2.267258 -10.013765
vn 1.0000 -0.0000 -0.0000
vn -0.0000 -0.0000 -1.0000
vn -1.0000 -0.0000 -0.0000
vn -0.0000 -0.0000 1.0000
vn -0.0000 -1.0000 -0.0000
vn -0.0000 1.0000 -0.0000
vt 0.375000 0.000000
vt 0.375000 1.000000
vt 0.782091 0.657091
vt 0.375000 0.250000
vt 0.782091 0.592909
vt 0.375000 0.750000
vt 0.717909 0.657091
vt 0.375000 0.500000
vt 0.717909 0.592909
vt 0.625000 0.000000
vt 0.625000 1.000000
vt 0.875000 0.750000
vt 0.625000 0.250000
vt 0.875000 0.500000
vt 0.625000 0.500000
vt 0.625000 0.750000
vt 0.875000 0.750000
vt 0.875000 0.500000
vt 0.625000 0.500000
vt 0.625000 0.750000
vt 0.875000 0.750000
vt 0.875000 0.500000
vt 0.625000 0.500000
vt 0.625000 0.750000
vt 0.875000 0.750000
vt 0.875000 0.500000
vt 0.625000 0.500000
vt 0.625000 0.750000
vt 0.782091 0.657091
vt 0.782091 0.592909
vt 0.717909 0.592909
vt 0.717909 0.657091
vt 0.717909 0.592909
vt 0.717909 0.657091
vt 0.782091 0.657091
vt 0.782091 0.592909
vt 0.782091 0.592909
vt 0.000000 0.000000
vt 0.717909 0.592909
vt 0.000000 0.000000
vt 0.717909 0.592909
vt 0.000000 0.000000
vt 0.782091 0.592909
vt 0.000000 0.000000
vt 0.000000 0.000000
vt 0.000000 0.000000
vt 0.000000 0.000000
vt 0.000000 0.000000
vt 0.000000 0.000000
vt 0.000000 0.000000
vt 0.000000 0.000000
vt 0.000000 0.000000
s 0
f 9/15/7 17/24/7 18/27/7 11/18/7
f 11/18/8 18/27/8 19/29/8 15/22/8
f 15/22/9 19/29/9 20/30/9 13/20/9
f 13/20/10 20/30/10 17/25/10 9/16/10
f 38/48/9 37/47/9 35/45/9 36/46/9
f 21/31/11 22/32/11 18/28/11 17/26/11
f 22/32/11 23/33/11 19/29/11 18/28/11
f 23/33/11 24/34/11 20/30/11 19/29/11
f 24/34/11 21/31/11 17/26/11 20/30/11
f 25/35/11 26/36/11 22/32/11 21/31/11
f 26/36/11 27/37/11 23/33/11 22/32/11
f 27/37/11 28/38/11 24/34/11 23/33/11
f 28/38/11 25/35/11 21/31/11 24/34/11
f 29/39/11 30/40/11 26/36/11 25/35/11
f 30/40/11 31/41/11 27/37/11 26/36/11
f 31/41/11 32/42/11 28/38/11 27/37/11
f 32/42/11 29/39/11 25/35/11 28/38/11
f 10/17/11 12/19/11 30/40/11 29/39/11
f 12/19/11 16/23/11 31/41/11 30/40/11
f 16/23/11 14/21/11 32/42/11 31/41/11
f 14/21/11 10/17/11 29/39/11 32/42/11
f 35/45/11 34/44/11 33/43/11 36/46/11
f 40/50/7 39/49/7 33/43/7 34/44/7
f 39/49/10 38/48/10 36/46/10 33/43/10
f 16/23/8 12/19/8 40/50/8 37/47/8
f 10/17/10 14/21/10 38/48/10 39/49/10
f 12/19/7 10/17/7 39/49/7 40/50/7
f 14/21/9 16/23/9 37/47/9 38/48/9
f 34/44/11 35/45/11 43/55/11 44/57/11
f 40/50/7 34/44/7 44/57/7 41/51/7
f 35/45/9 37/47/9 42/53/9 43/55/9
f 37/47/12 40/50/12 41/51/12 42/53/12
f 48/62/10 44/57/10 43/55/10 47/61/10
f 48/62/10 45/59/10 41/52/10 44/58/10
f 45/59/10 46/60/10 42/54/10 41/52/10
f 46/60/10 47/61/10 43/56/10 42/54/10
f 46/60/9 50/64/9 51/65/9 47/61/9
f 45/59/12 49/63/12 50/64/12 46/60/12
f 47/61/11 51/65/11 52/66/11 48/62/11
f 48/62/7 52/66/7 49/63/7 45/59/7
o Cube.002
v -9.683494 -0.035838 -6.937299
v -9.291908 0.100286 -7.328885
v -9.683495 -0.035838 -7.990979
v -9.291908 0.100287 -7.599393
v -8.629813 -0.035838 -6.937299
v -9.021399 0.100286 -7.328885
v -8.629814 -0.035838 -7.990979
v -9.021399 0.100286 -7.599393
v -9.683494 0.100287 -6.937299
v -9.683494 0.100287 -7.990979
v -8.629813 0.100286 -7.990979
v -8.629813 0.100286 -6.937299
v -9.683494 0.100287 -6.937299
v -9.683494 0.100287 -7.990979
v -8.629813 0.100286 -7.990979
v -8.629813 0.100286 -6.937299
v -9.683494 0.100287 -6.937299
v -9.683494 0.100287 -7.990979
v -8.629813 0.100286 -7.990979
v -8.629813 0.100286 -6.937299
v -9.683494 0.100287 -6.937299
v -9.683494 0.100287 -7.990979
v -8.629813 0.100286 -7.990979
v -8.629813 0.100286 -6.937299
v -9.291907 1.609915 -7.328884
v -9.291907 1.609915 -7.599393
v -9.021399 1.609915 -7.599393
v -9.021399 1.609915 -7.328884
v -9.021399 1.377429 -7.599393
v -9.021399 1.377429 -7.328884
v -9.291907 1.377429 -7.328884
v -9.291907 1.377429 -7.599393
v -9.291908 1.377430 -9.888092
v -9.021399 1.377430 -9.888092
v -9.021399 1.609915 -9.888092
v -9.291908 1.609915 -9.888092
v -9.417176 1.269770 -9.888092
v -8.896131 1.269770 -9.888092
v -8.896131 1.717575 -9.888092
v -9.417176 1.717575 -9.888092
v -9.417176 1.269770 -10.027384
v -8.896131 1.269770 -10.027384
v -8.896131 1.717575 -10.027384
v -9.417176 1.717575 -10.027384
vn -1.0000 -0.0000 -0.0000
vn -0.0000 -0.0000 -1.0000
vn 1.0000 -0.0000 -0.0000
vn -0.0000 -0.0000 1.0000
vn -0.0000 1.0000 -0.0000
vn -0.0000 -1.0000 -0.0000
vt 0.375000 0.000000
vt 0.375000 1.000000
vt 0.782091 0.657091
vt 0.375000 0.250000
vt 0.782091 0.592909
vt 0.375000 0.750000
vt 0.717909 0.657091
vt 0.375000 0.500000
vt 0.717909 0.592909
vt 0.625000 0.000000
vt 0.625000 1.000000
vt 0.875000 0.750000
vt 0.625000 0.250000
vt 0.875000 0.500000
vt 0.625000 0.500000
vt 0.625000 0.750000
vt 0.875000 0.750000
vt 0.875000 0.500000
vt 0.625000 0.500000
vt 0.625000 0.750000
vt 0.875000 0.750000
vt 0.875000 0.500000
vt 0.625000 0.500000
vt 0.625000 0.750000
vt 0.875000 0.750000
vt 0.875000 0.500000
vt 0.625000 0.500000
vt 0.625000 0.750000
vt 0.782091 0.657091
vt 0.782091 0.592909
vt 0.717909 0.592909
vt 0.717909 0.657091
vt 0.717909 0.592909
vt 0.717909 0.657091
vt 0.782091 0.657091
vt 0.782091 0.592909
vt 0.782091 0.592909
vt 0.000000 0.000000
vt 0.717909 0.592909
vt 0.000000 0.000000
vt 0.717909 0.592909
vt 0.000000 0.000000
vt 0.782091 0.592909
vt 0.000000 0.000000
vt 0.000000 0.000000
vt 0.000000 0.000000
vt 0.000000 0.000000
vt 0.000000 0.000000
vt 0.000000 0.000000
vt 0.000000 0.000000
vt 0.000000 0.000000
vt 0.000000 0.000000
s 0
f 53/67/13 61/76/13 62/79/13 55/70/13
f 55/70/14 62/79/14 63/81/14 59/74/14
f 59/74/15 63/81/15 64/82/15 57/72/15
f 57/72/16 64/82/16 61/77/16 53/68/16
f 82/100/15 81/99/15 79/97/15 80/98/15
f 65/83/17 66/84/17 62/80/17 61/78/17
f 66/84/17 67/85/17 63/81/17 62/80/17
f 67/85/17 68/86/17 64/82/17 63/81/17
f 68/86/17 65/83/17 61/78/17 64/82/17
f 69/87/17 70/88/17 66/84/17 65/83/17
f 70/88/17 71/89/17 67/85/17 66/84/17
f 71/89/17 72/90/17 68/86/17 67/85/17
f 72/90/17 69/87/17 65/83/17 68/86/17
f 73/91/17 74/92/17 70/88/17 69/87/17
f 74/92/17 75/93/17 71/89/17 70/88/17
f 75/93/17 76/94/17 72/90/17 71/89/17
f 76/94/17 73/91/17 69/87/17 72/90/17
f 54/69/17 56/71/17 74/92/17 73/91/17
f 56/71/17 60/75/17 75/93/17 74/92/17
f 60/75/17 58/73/17 76/94/17 75/93/17
f 58/73/17 54/69/17 73/91/17 76/94/17
f 79/97/17 78/96/17 77/95/17 80/98/17
f 84/102/13 83/101/13 77/95/13 78/96/13
f 83/101/16 82/100/16 80/98/16 77/95/16
f 60/75/14 56/71/14 84/102/14 81/99/14
f 54/69/16 58/73/16 82/100/16 83/101/16
f 56/71/13 54/69/13 83/101/13 84/102/13
f 58/73/15 60/75/15 81/99/15 82/100/15
f 78/96/17 79/97/17 87/107/17 88/109/17
f 84/102/13 78/96/13 88/109/13 85/103/13
f 79/97/15 81/99/15 86/105/15 87/107/15
f 81/99/18 84/102/18 85/103/18 86/105/18
f 92/114/16 88/109/16 87/107/16 91/113/16
f 92/114/16 89/111/16 85/104/16 88/110/16
f 89/111/16 90/112/16 86/106/16 85/104/16
f 90/112/16 91/113/16 87/108/16 86/106/16
f 90/112/15 94/116/15 95/117/15 91/113/15
f 89/111/18 93/115/18 94/116/18 90/112/18
f 91/113/17 95/117/17 96/118/17 92/114/17
f 92/114/13 96/118/13 93/115/13 89/111/13
o Cube.003
v -8.473184 -0.035838 -6.937299
v -8.081598 0.100286 -7.328885
v -8.473184 -0.035838 -7.990979
v -8.081598 0.100287 -7.599393
v -7.419503 -0.035838 -6.937299
v -7.811089 0.100286 -7.328885
v -7.419503 -0.035838 -7.990979
v -7.811089 0.100286 -7.599393
v -8.473184 0.100287 -6.937299
v -8.473184 0.100287 -7.990979
v -7.419503 0.100286 -7.990979
v -7.419503 0.100286 -6.937299
v -8.473184 0.100287 -6.937299
v -8.473184 0.100287 -7.990979
v -7.419503 0.100286 -7.990979
v -7.419503 0.100286 -6.937299
v -8.473184 0.100287 -6.937299
v -8.473184 0.100287 -7.990979
v -7.419503 0.100286 -7.990979
v -7.419503 0.100286 -6.937299
v -8.473184 0.100287 -6.937299
v -8.473184 0.100287 -7.990979
v -7.419503 0.100286 -7.990979
v -7.419503 0.100286 -6.937299
v -8.081597 1.609915 -7.328884
v -8.081597 1.609915 -7.599393
v -7.811088 1.609915 -7.599393
v -7.811088 1.609915 -7.328884
v -7.811088 1.377429 -7.599393
v -7.811088 1.377429 -7.328884
v -8.081597 1.377429 -7.328884
v -8.081597 1.377429 -7.599393
v -8.081597 1.377430 -9.888092
v -7.811088 1.377430 -9.888092
v -7.811088 1.609915 -9.888092
v -8.081597 1.609915 -9.888092
v -8.206866 1.269770 -9.888092
v -7.685820 1.269770 -9.888092
v -7.685820 1.717575 -9.888092
v -8.206866 1.717575 -9.888092
v -8.206866 1.269770 -10.027384
v -7.685820 1.269770 -10.027384
v -7.685820 1.717575 -10.027384
v -8.206866 1.717575 -10.027384
vn -1.0000 -0.0000 -0.0000
vn -0.0000 -0.0000 -1.0000
vn 1.0000 -0.0000 -0.0000
vn -0.0000 -0.0000 1.0000
vn -0.0000 1.0000 -0.0000
vn -0.0000 -1.0000 -0.0000
vt 0.375000 0.000000
vt 0.375000 1.000000
vt 0.782091 0.657091
vt 0.375000 0.250000
vt 0.782091 0.592909
vt 0.375000 0.750000
vt 0.717909 0.657091
vt 0.375000 0.500000
vt 0.717909 0.592909
vt 0.625000 0.000000
vt 0.625000 1.000000
vt 0.875000 0.750000
vt 0.625000 0.250000
vt 0.875000 0.500000
vt 0.625000 0.500000
vt 0.625000 0.750000
vt 0.875000 0.750000
vt 0.875000 0.500000
vt 0.625000 0.500000
vt 0.625000 0.750000
vt 0.875000 0.750000
vt 0.875000 0.500000
vt 0.625000 0.500000
vt 0.625000 0.750000
vt 0.875000 0.750000
vt 0.875000 0.500000
vt 0.625000 0.500000
vt 0.625000 0.750000
vt 0.782091 0.657091
vt 0.782091 0.592909
vt 0.717909 0.592909
vt 0.717909 0.657091
vt 0.717909 0.592909
vt 0.717909 0.657091
vt 0.782091 0.657091
vt 0.782091 0.592909
vt 0.782091 0.592909
vt 0.000000 0.000000
vt 0.717909 0.592909
vt 0.000000 0.000000
vt 0.717909 0.592909
vt 0.000000 0.000000
vt 0.782091 0.592909
vt 0.000000 0.000000
vt 0.000000 0.000000
vt 0.000000 0.000000
vt 0.000000 0.000000
vt 0.000000 0.000000
vt 0.000000 0.000000
vt 0.000000 0.000000
vt 0.000000 0.000000
vt 0.000000 0.000000
s 0
f 97/119/19 105/128/19 106/131/19 99/122/19
f 99/122/20 106/131/20 107/133/20 103/126/20
f 103/126/21 107/133/21 108/134/21 101/124/21
f 101/124/22 108/134/22 105/129/22 97/120/22
f 126/152/21 125/151/21 123/149/21 124/150/21
f 109/135/23 110/136/23 106/132/23 105/130/23
f 110/136/23 111/137/23 107/133/23 106/132/23
f 111/137/23 112/138/23 108/134/23 107/133/23
f 112/138/23 109/135/23 105/130/23 108/134/23
f 113/139/23 114/140/23 110/136/23 109/135/23
f 114/140/23 115/141/23 111/137/23 110/136/23
f 115/141/23 116/142/23 112/138/23 111/137/23
f 116/142/23 113/139/23 109/135/23 112/138/23
f 117/143/23 118/144/23 114/140/23 113/139/23
f 118/144/23 119/145/23 115/141/23 114/140/23
f 119/145/23 120/146/23 116/142/23 115/141/23
f 120/146/23 117/143/23 113/139/23 116/142/23
f 98/121/23 100/123/23 118/144/23 117/143/23
f 100/123/23 104/127/23 119/145/23 118/144/23
f 104/127/23 102/125/23 120/146/23 119/145/23
f 102/125/23 98/121/23 117/143/23 120/146/23
f 123/149/23 122/148/23 121/147/23 124/150/23
f 128/154/19 127/153/19 121/147/19 122/148/19
f 127/153/22 126/152/22 124/150/22 121/147/22
f 104/127/20 100/123/20 128/154/20 125/151/20
f 98/121/22 102/125/22 126/152/22 127/153/22
f 100/123/19 98/121/19 127/153/19 128/154/19
f 102/125/21 104/127/21 125/151/21 126/152/21
f 122/148/23 123/149/23 131/159/23 132/161/23
f 128/154/19 122/148/19 132/161/19 129/155/19
f 123/149/21 125/151/21 130/157/21 131/159/21
f 125/151/24 128/154/24 129/155/24 130/157/24
f 136/166/22 132/161/22 131/159/22 135/165/22
f 136/166/22 133/163/22 129/156/22 132/162/22
f 133/163/22 134/164/22 130/158/22 129/156/22
f 134/164/22 135/165/22 131/160/22 130/158/22
f 134/164/21 138/168/21 139/169/21 135/165/21
f 133/163/24 137/167/24 138/168/24 134/164/24
f 135/165/23 139/169/23 140/170/23 136/166/23
f 136/166/19 140/170/19 137/167/19 133/163/19
o Cube.004
v -7.277650 -0.035838 -6.937299
v -6.886064 0.100286 -7.328885
v -7.277650 -0.035838 -7.990979
v -6.886065 0.100287 -7.599393
v -6.223969 -0.035838 -6.937299
v -6.615555 0.100286 -7.328885
v -6.223969 -0.035838 -7.990979
v -6.615555 0.100286 -7.599393
v -7.277650 0.100287 -6.937299
v -7.277650 0.100287 -7.990979
v -6.223969 0.100286 -7.990979
v -6.223969 0.100286 -6.937299
v -7.277650 0.100287 -6.937299
v -7.277650 0.100287 -7.990979
v -6.223969 0.100286 -7.990979
v -6.223969 0.100286 -6.937299
v -7.277650 0.100287 -6.937299
v -7.277650 0.100287 -7.990979
v -6.223969 0.100286 -7.990979
v -6.223969 0.100286 -6.937299
v -7.277650 0.100287 -6.937299
v -7.277650 0.100287 -7.990979
v -6.223969 0.100286 -7.990979
v -6.223969 0.100286 -6.937299
v -6.886064 1.609915 -7.328884
v -6.886064 1.609915 -7.599393
v -6.615554 1.609915 -7.599393
v -6.615554 1.609915 -7.328884
v -6.615554 1.377429 -7.599393
v -6.615554 1.377429 -7.328884
v -6.886064 1.377429 -7.328884
v -6.886064 1.377429 -7.599393
v -6.886064 1.377430 -9.888092
v -6.615554 1.377430 -9.888092
v -6.615554 1.609915 -9.888092
v -6.886064 1.609915 -9.888092
v -7.011333 1.269770 -9.888092
v -6.490286 1.269770 -9.888092
v -6.490286 1.717575 -9.888092
v -7.011332 1.717575 -9.888092
v -7.011333 1.269770 -10.027384
v -6.490286 1.269770 -10.027384
v -6.490286 1.717575 -10.027384
v -7.011332 1.717575 -10.027384
vn -1.0000 -0.0000 -0.0000
vn -0.0000 -0.0000 -1.0000
vn 1.0000 -0.0000 -0.0000
vn -0.0000 -0.0000 1.0000
vn -0.0000 1.0000 -0.0000
vn -0.0000 -1.0000 -0.0000
vt 0.375000 0.000000
vt 0.375000 1.000000
vt 0.782091 0.657091
vt 0.375000 0.250000
vt 0.782091 0.592909
vt 0.375000 0.750000
vt 0.717909 0.657091
vt 0.375000 0.500000
vt 0.717909 0.592909
vt 0.625000 0.000000
vt 0.625000 1.000000
vt 0.875000 0.750000
vt 0.625000 0.250000
vt 0.875000 0.500000
vt 0.625000 0.500000
vt 0.625000 0.750000
vt 0.875000 0.750000
vt 0.875000 0.500000
vt 0.625000 0.500000
vt 0.625000 0.750000
vt 0.875000 0.750000
vt 0.875000 0.500000
vt 0.625000 0.500000
vt 0.625000 0.750000
vt 0.875000 0.750000
vt 0.875000 0.500000
vt 0.625000 0.500000
vt 0.625000 0.750000
vt 0.782091 0.657091
vt 0.782091 0.592909
vt 0.717909 0.592909
vt 0.717909 0.657091
vt 0.717909 0.592909
vt 0.717909 0.657091
vt 0.782091 0.657091
vt 0.782091 0.592909
vt 0.782091 0.592909
vt 0.000000 0.000000
vt 0.717909 0.592909
vt 0.000000 0.000000
vt 0.717909 0.592909
vt 0.000000 0.000000
vt 0.782091 0.592909
vt 0.000000 0.000000
vt 0.000000 0.000000
vt 0.000000 0.000000
vt 0.000000 0.000000
vt 0.000000 0.000000
vt 0.000000 0.000000
vt 0.000000 0.000000
vt 0.000000 0.000000
vt 0.000000 0.000000
s 0
f 141/171/25 149/180/25 150/183/25 143/174/25
f 143/174/26 150/183/26 151/185/26 147/178/26
f 147/178/27 151/185/27 152/186/27 145/176/27
f 145/176/28 152/186/28 149/181/28 141/172/28
f 170/204/27 169/203/27 167/201/27 168/202/27
f 153/187/29 154/188/29 150/184/29 149/182/29
f 154/188/29 155/189/29 151/185/29 150/184/29
f 155/189/29 156/190/29 152/186/29 151/185/29
f 156/190/29 153/187/29 149/182/29 152/186/29
f 157/191/29 158/192/29 154/188/29 153/187/29
f 158/192/29 159/193/29 155/189/29 154/188/29
f 159/193/29 160/194/29 156/190/29 155/189/29
f 160/194/29 157/191/29 153/187/29 156/190/29
f 161/195/29 162/196/29 158/192/29 157/191/29
f 162/196/29 163/197/29 159/193/29 158/192/29
f 163/197/29 164/198/29 160/194/29 159/193/29
f 164/198/29 161/195/29 157/191/29 160/194/29
f 142/173/29 144/175/29 162/196/29 161/195/29
f 144/175/29 148/179/29 163/197/29 162/196/29
f 148/179/29 146/177/29 164/198/29 163/197/29
f 146/177/29 142/173/29 161/195/29 164/198/29
f 167/201/29 166/200/29 165/199/29 168/202/29
f 172/206/25 171/205/25 165/199/25 166/200/25
f 171/205/28 170/204/28 168/202/28 165/199/28
f 148/179/26 144/175/26 172/206/26 169/203/26
f 142/173/28 146/177/28 170/204/28 171/205/28
f 144/175/25 142/173/25 171/205/25 172/206/25
f 146/177/27 148/179/27 169/203/27 170/204/27
f 166/200/29 167/201/29 175/211/29 176/213/29
f 172/206/25 166/200/25 176/213/25 173/207/25
f 167/201/27 169/203/27 174/209/27 175/211/27
f 169/203/30 172/206/30 173/207/30 174/209/30
f 180/218/28 176/213/28 175/211/28 179/217/28
f 180/218/28 177/215/28 173/208/28 176/214/28
f 177/215/28 178/216/28 174/210/28 173/208/28
f 178/216/28 179/217/28 175/212/28 174/210/28
f 178/216/27 182/220/27 183/221/27 179/217/27
f 177/215/30 181/219/30 182/220/30 178/216/30
f 179/217/29 183/221/29 184/222/29 180/218/29
f 180/218/25 184/222/25 181/219/25 177/215/25
